<?xml version="1.0" encoding="UTF-8"?>
<!DOCTYPE svg PUBLIC "-//W3C//DTD SVG 1.1//EN" "http://www.w3.org/Graphics/SVG/1.1/DTD/svg11.dtd">
<svg xmlns="http://www.w3.org/2000/svg" version="1.1" width="2000px" height="2000px" style="shape-rendering:geometricPrecision; text-rendering:geometricPrecision; image-rendering:optimizeQuality; fill-rule:evenodd; clip-rule:evenodd" xmlns:xlink="http://www.w3.org/1999/xlink">
<g><path style="opacity:1" fill="#31f9e5" d="M -0.5,-0.5 C 0.166667,-0.5 0.833333,-0.5 1.5,-0.5C 1.16667,0.5 0.5,1.16667 -0.5,1.5C -0.5,0.833333 -0.5,0.166667 -0.5,-0.5 Z"/></g>
<g><path style="opacity:1" fill="#42f9d1" d="M 1997.5,-0.5 C 1998.17,-0.5 1998.83,-0.5 1999.5,-0.5C 1999.5,0.166667 1999.5,0.833333 1999.5,1.5C 1998.5,1.16667 1997.83,0.5 1997.5,-0.5 Z"/></g>
<g><path style="opacity:1" fill="#2cda60" d="M 1021.5,399.5 C 1021.61,400.117 1021.94,400.617 1022.5,401C 1009.17,401.667 995.833,401.667 982.5,401C 981.944,400.617 981.611,400.117 981.5,399.5C 994.849,398.254 1008.18,398.254 1021.5,399.5 Z"/></g>
<g><path style="opacity:1" fill="#0ccd57" d="M 981.5,399.5 C 981.611,400.117 981.944,400.617 982.5,401C 995.833,401.667 1009.17,401.667 1022.5,401C 1021.94,400.617 1021.61,400.117 1021.5,399.5C 1109.79,407.713 1177.62,449.047 1225,523.5C 1265,594.437 1272,668.77 1246,746.5C 1234.87,773.095 1220.87,798.095 1204,821.5C 1137.72,913.874 1071.56,1006.37 1005.5,1099C 1004.5,1099.67 1003.5,1099.67 1002.5,1099C 929.018,996.498 855.851,893.664 783,790.5C 761.252,754.186 749.085,714.853 746.5,672.5C 747.222,672.918 747.722,673.584 748,674.5C 748.244,659.987 748.744,645.487 749.5,631C 749.664,628.456 748.997,626.29 747.5,624.5C 763.225,526.168 816.558,457.001 907.5,417C 931.443,408.285 956.109,402.451 981.5,399.5 Z M 983.5,449.5 C 1075.95,445.588 1144.78,483.588 1190,563.5C 1224.11,638.933 1218.11,710.933 1172,779.5C 1115.76,857.627 1059.76,935.96 1004,1014.5C 991.171,997.505 978.838,980.171 967,962.5C 920.197,897.022 873.363,831.522 826.5,766C 788.564,700.347 785.564,633.014 817.5,564C 853.271,497.766 908.605,459.599 983.5,449.5 Z M 991.5,587.5 C 1033.88,584.421 1061.04,603.088 1073,643.5C 1076.57,682.525 1060.41,709.359 1024.5,724C 993.52,730.951 967.853,722.451 947.5,698.5C 927.887,668.31 929.054,638.977 951,610.5C 962.205,598.814 975.705,591.147 991.5,587.5 Z"/></g>
<g><path style="opacity:1" fill="#0dce57" d="M 992.5,536.5 C 1042.7,534.843 1081.2,554.843 1108,596.5C 1133.01,646.778 1128.01,693.778 1093,737.5C 1054.62,775.445 1009.79,785.612 958.5,768C 904.46,742.455 879.96,699.622 885,639.5C 893.756,591.082 921.256,558.582 967.5,542C 976.065,540.479 984.398,538.646 992.5,536.5 Z M 991.5,587.5 C 975.705,591.147 962.205,598.814 951,610.5C 929.054,638.977 927.887,668.31 947.5,698.5C 967.853,722.451 993.52,730.951 1024.5,724C 1060.41,709.359 1076.57,682.525 1073,643.5C 1061.04,603.088 1033.88,584.421 991.5,587.5 Z"/></g>
<g><path style="opacity:1" fill="#32d372" d="M 747.5,624.5 C 748.997,626.29 749.664,628.456 749.5,631C 748.744,645.487 748.244,659.987 748,674.5C 747.722,673.584 747.222,672.918 746.5,672.5C 746.281,656.481 746.614,640.481 747.5,624.5 Z"/></g>
<g><path style="opacity:1" fill="#0ccd56" d="M 747.5,1152.5 C 747.918,1153.22 748.584,1153.72 749.5,1154C 748.833,1154.33 748.167,1154.67 747.5,1155C 780.833,1155.67 814.167,1155.67 847.5,1155C 834.993,1154.83 822.66,1154.33 810.5,1153.5C 837.5,1152.83 864.5,1152.17 891.5,1151.5C 891.082,1152.22 890.416,1152.72 889.5,1153C 885.833,1153.33 882.167,1153.67 878.5,1154C 893.846,1154.67 909.179,1154.5 924.5,1153.5C 970.833,1153.5 1017.17,1153.5 1063.5,1153.5C 1106.83,1154.55 1150.16,1154.71 1193.5,1154C 1192.26,1153.77 1191.26,1153.27 1190.5,1152.5C 1222.18,1152.53 1253.84,1152.7 1285.5,1153C 1295.88,1151.95 1302.72,1146.45 1306,1136.5C 1340.83,1033.12 1375.33,929.789 1409.5,826.5C 1408.5,826.5 1407.5,826.5 1406.5,826.5C 1407.43,825.685 1408.43,824.852 1409.5,824C 1362.6,823.831 1315.76,823.331 1269,822.5C 1267.89,823.712 1267.39,823.379 1267.5,821.5C 1277.96,804.304 1287.96,786.804 1297.5,769C 1348.83,768.333 1400.17,768.333 1451.5,769C 1461.43,770.042 1469.26,774.542 1475,782.5C 1478.07,792.462 1478.07,802.462 1475,812.5C 1432.7,937.006 1390.7,1061.67 1349,1186.5C 1346.76,1193.08 1343.26,1198.91 1338.5,1204C 1333.19,1207.99 1327.19,1209.83 1320.5,1209.5C 1320.58,1208.25 1321.24,1207.42 1322.5,1207C 1125.53,1207.33 928.533,1207.66 731.5,1208C 927.5,1208.33 1123.5,1208.67 1319.5,1209C 1318.58,1209.28 1317.92,1209.78 1317.5,1210.5C 1313.83,1210.5 1310.17,1210.5 1306.5,1210.5C 1139.33,1209.4 972.334,1209.4 805.5,1210.5C 781.792,1210.64 758.126,1210.64 734.5,1210.5C 739.578,1235.81 745.745,1260.81 753,1285.5C 758.146,1290.14 763.98,1293.14 770.5,1294.5C 768.621,1294.39 768.288,1294.89 769.5,1296C 786.831,1297.68 804.164,1297.84 821.5,1296.5C 820.737,1297.27 819.737,1297.77 818.5,1298C 963.317,1297.2 1108.15,1297.36 1253,1298.5C 1262.17,1298.33 1271.33,1298.17 1280.5,1298C 1282.06,1297.79 1283.39,1297.29 1284.5,1296.5C 1285.83,1296.5 1286.5,1295.83 1286.5,1294.5C 1295.27,1294.63 1303.6,1296.47 1311.5,1300C 1325.39,1310.61 1328.22,1323.78 1320,1339.5C 1315.11,1345.2 1308.94,1348.7 1301.5,1350C 1294.55,1351.23 1287.55,1351.73 1280.5,1351.5C 1242.84,1350.36 1205.01,1349.69 1167,1349.5C 1025.02,1349.45 882.857,1349.62 740.5,1350C 807.668,1350.17 874.668,1350.67 941.5,1351.5C 870.833,1351.67 800.166,1351.5 729.5,1351C 721.261,1350.38 714.594,1346.88 709.5,1340.5C 705.784,1333.19 702.95,1325.52 701,1317.5C 648.962,1114.01 596.628,910.678 544,707.5C 543.623,706.058 542.79,705.058 541.5,704.5C 542.528,703.926 543.528,703.593 544.5,703.5C 496.17,702.333 447.837,702.167 399.5,703C 398.944,703.383 398.611,703.883 398.5,704.5C 374.169,702.516 364.336,689.516 369,665.5C 371.833,657.333 377.333,651.833 385.5,649C 416.977,647.868 448.477,647.368 480,647.5C 508.5,647.667 537,647.833 565.5,648C 569.584,648.231 573.584,648.898 577.5,650C 584.292,653.676 589.126,659.176 592,666.5C 600.998,700.155 609.998,733.822 619,767.5C 649.428,768.329 679.928,768.829 710.5,769C 719.732,788.293 730.398,806.793 742.5,824.5C 742.291,825.086 741.957,825.586 741.5,826C 705.835,826.5 670.168,826.667 634.5,826.5C 660.862,930.948 687.695,1035.28 715,1139.5C 716.743,1144.91 720.243,1148.74 725.5,1151C 732.761,1152.35 740.094,1152.85 747.5,1152.5 Z"/></g>
<g><path style="opacity:1" fill="#18c668" d="M 541.5,704.5 C 493.833,704.5 446.167,704.5 398.5,704.5C 398.611,703.883 398.944,703.383 399.5,703C 447.837,702.167 496.17,702.333 544.5,703.5C 543.528,703.593 542.528,703.926 541.5,704.5 Z"/></g>
<g><path style="opacity:1" fill="#00c848" d="M 1267.5,821.5 C 1267.39,823.379 1267.89,823.712 1269,822.5C 1315.76,823.331 1362.6,823.831 1409.5,824C 1408.43,824.852 1407.43,825.685 1406.5,826.5C 1359.83,826.667 1313.17,826.5 1266.5,826C 1265.08,824.085 1265.42,822.585 1267.5,821.5 Z"/></g>
<g><path style="opacity:1" fill="#25d06a" d="M 891.5,1151.5 C 907.5,1151.5 923.5,1151.5 939.5,1151.5C 934.5,1152.17 929.5,1152.83 924.5,1153.5C 909.179,1154.5 893.846,1154.67 878.5,1154C 882.167,1153.67 885.833,1153.33 889.5,1153C 890.416,1152.72 891.082,1152.22 891.5,1151.5 Z"/></g>
<g><path style="opacity:1" fill="#3cd57a" d="M 939.5,1151.5 C 966.167,1151.5 992.833,1151.5 1019.5,1151.5C 1034.17,1152.17 1048.83,1152.83 1063.5,1153.5C 1017.17,1153.5 970.833,1153.5 924.5,1153.5C 929.5,1152.83 934.5,1152.17 939.5,1151.5 Z"/></g>
<g><path style="opacity:1" fill="#24d366" d="M 1019.5,1151.5 C 1076.5,1151.31 1133.5,1151.64 1190.5,1152.5C 1191.26,1153.27 1192.26,1153.77 1193.5,1154C 1150.16,1154.71 1106.83,1154.55 1063.5,1153.5C 1048.83,1152.83 1034.17,1152.17 1019.5,1151.5 Z"/></g>
<g><path style="opacity:1" fill="#1ed361" d="M 747.5,1152.5 C 768.495,1153.09 789.495,1153.42 810.5,1153.5C 822.66,1154.33 834.993,1154.83 847.5,1155C 814.167,1155.67 780.833,1155.67 747.5,1155C 748.167,1154.67 748.833,1154.33 749.5,1154C 748.584,1153.72 747.918,1153.22 747.5,1152.5 Z"/></g>
<g><path style="opacity:1" fill="#00c73d" d="M 1320.5,1209.5 C 1319.79,1210.4 1318.79,1210.74 1317.5,1210.5C 1317.92,1209.78 1318.58,1209.28 1319.5,1209C 1123.5,1208.67 927.5,1208.33 731.5,1208C 928.533,1207.66 1125.53,1207.33 1322.5,1207C 1321.24,1207.42 1320.58,1208.25 1320.5,1209.5 Z"/></g>
<g><path style="opacity:1" fill="#03db38" d="M 805.5,1210.5 C 972.334,1209.4 1139.33,1209.4 1306.5,1210.5C 1139.94,1211.14 972.936,1211.14 805.5,1210.5 Z"/></g>
<g><path style="opacity:1" fill="#20d166" d="M 770.5,1294.5 C 942.5,1294.5 1114.5,1294.5 1286.5,1294.5C 1286.5,1295.83 1285.83,1296.5 1284.5,1296.5C 1130.17,1296.5 975.833,1296.5 821.5,1296.5C 804.164,1297.84 786.831,1297.68 769.5,1296C 768.288,1294.89 768.621,1294.39 770.5,1294.5 Z"/></g>
<g><path style="opacity:1" fill="#00c84a" d="M 821.5,1296.5 C 975.833,1296.5 1130.17,1296.5 1284.5,1296.5C 1283.39,1297.29 1282.06,1297.79 1280.5,1298C 1271.33,1298.17 1262.17,1298.33 1253,1298.5C 1108.15,1297.36 963.317,1297.2 818.5,1298C 819.737,1297.77 820.737,1297.27 821.5,1296.5 Z"/></g>
<g><path style="opacity:1" fill="#11cd5c" d="M 1280.5,1351.5 C 1167.5,1351.5 1054.5,1351.5 941.5,1351.5C 874.668,1350.67 807.668,1350.17 740.5,1350C 882.857,1349.62 1025.02,1349.45 1167,1349.5C 1205.01,1349.69 1242.84,1350.36 1280.5,1351.5 Z"/></g>
<g><path style="opacity:1" fill="#0cce57" d="M 793.5,1403.5 C 855.895,1404.45 900.728,1432.79 928,1488.5C 950.133,1550.12 937.633,1603.29 890.5,1648C 845.977,1682.15 797.31,1689.15 744.5,1669C 691.882,1642.86 664.549,1600.36 662.5,1541.5C 665.723,1484.2 692.723,1442.36 743.5,1416C 759.598,1409.31 776.264,1405.14 793.5,1403.5 Z M 788.5,1462.5 C 828.488,1458.95 857.321,1474.95 875,1510.5C 889.194,1553.59 877.694,1587.75 840.5,1613C 799.443,1631.92 764.276,1624.42 735,1590.5C 718.427,1564.29 715.761,1536.62 727,1507.5C 740.375,1482.61 760.875,1467.61 788.5,1462.5 Z"/></g>
<g><path style="opacity:1" fill="#0cce57" d="M 1181.5,1403.5 C 1231.6,1401.9 1272.1,1420.57 1303,1459.5C 1332.2,1502.14 1337.87,1547.81 1320,1596.5C 1294.37,1650.08 1251.7,1678.08 1192,1680.5C 1130.49,1677.66 1087.49,1647.99 1063,1591.5C 1043.71,1532.26 1056.55,1481.1 1101.5,1438C 1124.83,1418.62 1151.5,1407.12 1181.5,1403.5 Z M 1180.5,1462.5 C 1220.18,1459.42 1249.02,1475.42 1267,1510.5C 1282.01,1557.83 1267.84,1593.33 1224.5,1617C 1186.25,1630.89 1154.09,1622.39 1128,1591.5C 1106.65,1559.35 1106.31,1527.01 1127,1494.5C 1141.03,1477.27 1158.86,1466.6 1180.5,1462.5 Z"/></g>
<g><path style="opacity:1" fill="#42f9d1" d="M -0.5,1997.5 C 0.5,1997.83 1.16667,1998.5 1.5,1999.5C 0.833333,1999.5 0.166667,1999.5 -0.5,1999.5C -0.5,1998.83 -0.5,1998.17 -0.5,1997.5 Z"/></g>
<g><path style="opacity:1" fill="#00faf9" d="M 1999.5,1998.5 C 1999.5,1998.83 1999.5,1999.17 1999.5,1999.5C 1998.83,1999.02 1998.83,1998.69 1999.5,1998.5 Z"/></g>
</svg>
