<?xml version="1.0" encoding="utf-8"?>
<!-- Generator: Adobe Illustrator 24.0.2, SVG Export Plug-In . SVG Version: 6.00 Build 0)  -->
<svg version="1.1" id="Layer_1" xmlns="http://www.w3.org/2000/svg" xmlns:xlink="http://www.w3.org/1999/xlink" x="0px" y="0px"
	 viewBox="0 0 2000 2000" style="enable-background:new 0 0 2000 2000;" xml:space="preserve">
<style type="text/css">
	.st0{fill-rule:evenodd;clip-rule:evenodd;fill:#31F9E5;}
	.st1{fill-rule:evenodd;clip-rule:evenodd;fill:#42F9D1;}
	.st2{fill-rule:evenodd;clip-rule:evenodd;fill:#FFFFFF;}
	.st3{fill-rule:evenodd;clip-rule:evenodd;fill:#00FAF9;}
</style>
<g>
	<path class="st0" d="M-420.5-504c1,0,1.9,0,2.9,0c-0.4,1.5-1.5,2.5-2.9,2.9C-420.5-502.1-420.5-503-420.5-504z"/>
</g>
<g>
	<path class="st1" d="M2483.5-504c1,0,1.9,0,2.9,0c0,1,0,1.9,0,2.9C2484.9-501.5,2483.9-502.5,2483.5-504z"/>
</g>
<g>
	<path class="st2" d="M1064.9,77.4c0.1,0.9,0.6,1.6,1.5,2.2c-19.3,1-38.8,1-58.1,0c-0.9-0.6-1.3-1.3-1.5-2.2
		C1026.1,75.7,1045.6,75.7,1064.9,77.4z"/>
</g>
<g>
	<path class="st2" d="M1360.7,257.6c-68.9-108.1-167.4-168.3-295.8-180.2c0.1,0.9,0.6,1.6,1.5,2.2c-19.3,1-38.8,1-58.1,0
		c-0.9-0.6-1.3-1.3-1.5-2.2c-36.9,4.2-72.8,12.8-107.6,25.4C767.1,161,689.5,261.6,666.7,404.4c2.2,2.6,3.2,5.8,2.9,9.4
		c-1.2,21.1-1.9,42.2-2.2,63.2c-0.4-1.3-1.2-2.3-2.2-2.9c3.8,61.5,21.5,118.7,53.1,171.5c105.8,150,212.2,299.4,319,448.4
		c1.5,1,2.9,1,4.4,0c96.1-134.6,192.1-269,288.5-403.3c24.6-34,44.9-70.3,61-109C1429,468.8,1418.8,360.7,1360.7,257.6z
		 M1283.7,629.7c-81.7,113.5-163.1,227.5-244.2,341.6c-18.6-24.7-36.6-49.9-53.8-75.6c-68-95.2-136-190.4-204.2-285.6
		c-55.1-95.5-59.4-193.3-13.1-293.6c52-96.2,132.4-151.7,241.3-166.4c134.3-5.7,234.4,49.6,300.1,165.7
		C1359.4,425.4,1350.7,530,1283.7,629.7z"/>
</g>
<g>
	<path class="st2" d="M1190.6,363.7c-39-60.6-94.9-89.7-167.9-87.2c-11.8,3.2-23.8,5.8-36.3,8c-67.2,24.1-107.1,71.4-119.9,141.7
		c-7.3,87.4,28.3,149.7,106.8,186.8c74.6,25.6,139.7,10.8,195.5-44.3C1219.7,505.2,1227,436.8,1190.6,363.7z M1069.3,549
		c-45.1,10-82.4-2.3-111.9-37.1c-28.5-43.9-26.9-86.5,5.1-127.9c16.3-17,35.9-28.1,58.9-33.4c61.6-4.5,101,22.7,118.5,81.4
		C1145,488.7,1121.4,527.8,1069.3,549z"/>
</g>
<g>
	<path class="st2" d="M666.7,404.4c2.2,2.6,3.2,5.8,2.9,9.4c-1.2,21.1-1.9,42.2-2.2,63.2c-0.4-1.3-1.2-2.3-2.2-2.9
		C664.9,450.9,665.3,427.7,666.7,404.4z"/>
</g>
<g>
	<path class="st2" d="M666.7,1171.9c0.6,1,1.6,1.7,2.9,2.2c-1,0.4-1.9,1-2.9,1.5c48.4,1,96.9,1,145.3,0c-18.2-0.3-36-1-53.8-2.2
		c39.2-1,78.5-1.9,117.7-2.9c-0.6,1-1.6,1.7-2.9,2.2c-5.4,0.4-10.6,1-16,1.5c22.2,1,44.6,0.7,66.9-0.7c67.3,0,134.7,0,202,0
		c62.9,1.6,126,1.7,189,0.7c-1.7-0.3-3.2-1-4.4-2.2c46.1,0,92,0.3,138.1,0.7c15.1-1.6,25-9.6,29.8-24
		c50.6-150.3,100.7-300.4,150.4-450.6c-1.5,0-2.9,0-4.4,0c1.3-1.2,2.8-2.3,4.4-3.6c-68.2-0.3-136.2-1-204.2-2.2
		c-1.6,1.7-2.3,1.3-2.2-1.5c15.3-25,29.8-50.4,43.6-76.3c74.6-1,149.3-1,223.8,0c14.4,1.5,25.9,8,34.2,19.6
		c4.5,14.5,4.5,29.1,0,43.6c-61.5,181-122.5,362.2-183.1,543.6c-3.2,9.6-8.3,18-15.3,25.4c-7.7,5.8-16.4,8.4-26.2,8
		c0.1-1.9,1-3.1,2.9-3.6c-286.3,0.4-572.7,1-859,1.5c284.9,0.4,569.8,1,854.6,1.5c-1.3,0.4-2.3,1.2-2.9,2.2c-5.4,0-10.6,0-16,0
		c-243-1.6-485.7-1.6-728.2,0c-34.4,0.1-68.9,0.1-103.2,0c7.4,36.8,16.3,73.1,26.9,109c7.4,6.7,16,11,25.4,13.1
		c-2.8-0.1-3.2,0.6-1.5,2.2c25.1,2.5,50.4,2.6,75.6,0.7c-1.2,1.2-2.6,1.9-4.4,2.2c210.5-1.2,421.1-0.9,631.5,0.7
		c13.4-0.3,26.6-0.4,40-0.7c2.3-0.3,4.2-1,5.8-2.2c1.9,0,2.9-1,2.9-2.9c12.8,0.1,24.9,2.9,36.3,8c20.2,15.4,24.3,34.6,12.4,57.4
		c-7.1,8.3-16.1,13.4-26.9,15.3c-10,1.7-20.2,2.5-30.5,2.2c-54.8-1.6-109.7-2.6-165-2.9c-206.4-0.1-412.9,0.1-619.9,0.7
		c97.7,0.3,195.1,1,292.1,2.2c-102.8,0.3-205.4,0-308.1-0.7c-11.9-0.9-21.7-6-29.1-15.3c-5.4-10.6-9.4-21.8-12.4-33.4
		c-75.6-295.8-151.7-591.3-228.2-886.6c-0.6-2-1.7-3.5-3.6-4.4c1.5-0.9,2.9-1.3,4.4-1.5c-70.2-1.7-140.6-1.9-210.8-0.7
		c-0.9,0.6-1.3,1.3-1.5,2.2c-35.3-2.9-49.7-21.8-42.9-56.7c4.1-11.9,12.1-19.9,24-24c45.8-1.6,91.6-2.3,137.4-2.2
		c41.4,0.3,82.8,0.4,124.3,0.7c6,0.3,11.8,1.3,17.4,2.9c9.9,5.4,16.9,13.4,21.1,24c13.1,49,26.2,97.8,39.2,146.8
		c44.2,1.2,88.5,1.9,133,2.2c13.4,28.1,28.9,54.9,46.5,80.7c-0.3,0.9-0.7,1.6-1.5,2.2c-51.9,0.7-103.6,1-155.5,0.7
		c38.4,151.7,77.3,303.5,117,454.9c2.5,7.8,7.6,13.4,15.3,16.7C645.3,1171.6,655.9,1172.3,666.7,1171.9z"/>
</g>
<g>
	<path class="st2" d="M367.2,520.7c-69.3,0-138.5,0-207.8,0c0.1-0.9,0.6-1.6,1.5-2.2c70.2-1.2,140.6-1,210.8,0.7
		C370.1,519.4,368.7,519.8,367.2,520.7z"/>
</g>
<g>
	<path class="st2" d="M1422.5,690.8c-0.1,2.8,0.6,3.2,2.2,1.5c68,1.2,136,1.9,204.2,2.2c-1.6,1.3-3.1,2.5-4.4,3.6
		c-67.9,0.3-135.6,0-203.5-0.7C1419,694.5,1419.4,692.4,1422.5,690.8z"/>
</g>
<g>
	<path class="st2" d="M876,1170.4c23.3,0,46.5,0,69.8,0c-7.3,1-14.5,1.9-21.8,2.9c-22.2,1.5-44.6,1.7-66.9,0.7
		c5.4-0.4,10.6-1,16-1.5C874.4,1172.2,875.4,1171.4,876,1170.4z"/>
</g>
<g>
	<path class="st2" d="M945.7,1170.4c38.8,0,77.5,0,116.3,0c21.4,1,42.6,1.9,64,2.9c-67.3,0-134.7,0-202,0
		C931.2,1172.3,938.5,1171.4,945.7,1170.4z"/>
</g>
<g>
	<path class="st2" d="M1062,1170.4c82.8-0.3,165.7,0.1,248.5,1.5c1.2,1.2,2.6,1.9,4.4,2.2c-62.9,1-126,0.9-189-0.7
		C1104.6,1172.3,1083.4,1171.4,1062,1170.4z"/>
</g>
<g>
	<path class="st2" d="M666.7,1171.9c30.5,0.9,61,1.3,91.6,1.5c17.7,1.2,35.6,1.9,53.8,2.2c-48.4,1-96.9,1-145.3,0
		c1-0.4,1.9-1,2.9-1.5C668.3,1173.6,667.2,1172.9,666.7,1171.9z"/>
</g>
<g>
	<path class="st2" d="M1499.5,1254.7c-1,1.3-2.5,1.7-4.4,1.5c0.6-1,1.6-1.7,2.9-2.2c-284.9-0.4-569.8-1-854.6-1.5
		c286.3-0.4,572.7-1,859-1.5C1500.5,1251.7,1499.6,1253,1499.5,1254.7z"/>
</g>
<g>
	<path class="st2" d="M751,1256.2c242.4-1.6,485.2-1.6,728.2,0C1237,1257,994.3,1257,751,1256.2z"/>
</g>
<g>
	<path class="st2" d="M700.1,1378.3c250,0,500,0,750,0c0,1.9-1,2.9-2.9,2.9c-224.3,0-448.7,0-673,0c-25.1,1.9-50.4,1.7-75.6-0.7
		C696.9,1378.8,697.3,1378.1,700.1,1378.3z"/>
</g>
<g>
	<path class="st2" d="M774.2,1381.2c224.3,0,448.7,0,673,0c-1.6,1.2-3.5,1.9-5.8,2.2c-13.4,0.3-26.6,0.4-40,0.7
		c-210.5-1.6-421.1-1.9-631.5-0.7C771.6,1383,773,1382.3,774.2,1381.2z"/>
</g>
<g>
	<path class="st2" d="M1441.4,1461.1c-164.2,0-328.5,0-492.7,0c-97.1-1.2-194.5-1.9-292.1-2.2c207-0.6,413.5-0.9,619.9-0.7
		C1331.6,1458.5,1386.6,1459.5,1441.4,1461.1z"/>
</g>
<g>
	<path class="st2" d="M733.5,1536.7c90.7,1.3,155.8,42.6,195.5,123.5c32.1,89.5,14,166.9-54.5,231.8
		c-64.7,49.7-135.5,59.9-212.2,30.5c-76.5-37.9-116.3-99.7-119.2-185.3c4.7-83.3,43.9-144,117.7-182.4
		C684.2,1545.1,708.5,1539,733.5,1536.7z M726.2,1622.4c58.1-5.2,100,18,125.7,69.8c20.6,62.6,3.9,112.4-50.1,149
		c-59.7,27.5-110.8,16.6-153.3-32.7c-24.1-38.1-27.9-78.3-11.6-120.6C656.3,1651.6,686.1,1629.8,726.2,1622.4z"/>
</g>
<g>
	<path class="st2" d="M1297.5,1536.7c72.8-2.3,131.7,24.9,176.6,81.4c42.4,61.9,50.7,128.3,24.7,199.1
		c-37.2,77.9-99.3,118.6-186,122.1c-89.4-4.1-151.9-47.2-187.5-129.4c-28.1-86-9.3-160.5,56-223.1
		C1215,1558.6,1253.9,1541.9,1297.5,1536.7z M1296,1622.4c57.7-4.5,99.6,18.7,125.7,69.8c21.8,68.7,1.2,120.3-61.8,154.8
		c-55.7,20.2-102.3,7.8-140.3-37.1c-31-46.8-31.5-93.7-1.5-141C1238.6,1643.9,1264.6,1628.4,1296,1622.4z"/>
</g>
<g>
	<path class="st1" d="M-420.5,2400c1.5,0.4,2.5,1.5,2.9,2.9c-1,0-1.9,0-2.9,0C-420.5,2401.9-420.5,2401.1-420.5,2400z"/>
</g>
<g>
	<path class="st3" d="M2486.4,2401.5c0,0.4,0,1,0,1.5C2485.4,2402.2,2485.4,2401.8,2486.4,2401.5z"/>
</g>
</svg>
